# xmcd
# 
# Track frame offsets:
#     150
#     19292
#     38370
#     57512
#     76590
# 
# Disc length: 1240
# 
# Revision: 1
# Processed by: cddbd v1.5.2PL0 Copyright (c) Steve Scherf et al.
# Submitted via: fre:ac v1.0.17
# 
DISCID=2e04d605
DTITLE=けんぷファー für die Liebe( - けんぷファー für die Liebe
DYEAR=2011
DGENRE=Anime
TTITLE0=Choose my love
TTITLE1=妄想少女A
TTITLE2=Choose my love! (instrumental)
TTITLE3=妄想少女A (instrumental)
TTITLE4=ワンウェイもちろん片想い (Bonus Track)
EXTD=けんぷファー für die Liebe
EXTT0=
EXTT1=
EXTT2=
EXTT3=
EXTT4=
PLAYORDER=
